<svg width="14" height="15" viewBox="0 0 14 15" fill="none" xmlns="http://www.w3.org/2000/svg">
<path d="M1 13.5V12.1667C1 11.4594 1.28095 10.7811 1.78105 10.281C2.28115 9.78095 2.95942 9.5 3.66667 9.5H6.33333C7.04058 9.5 7.71885 9.78095 8.21895 10.281C8.71905 10.7811 9 11.4594 9 12.1667V13.5M9.66667 1.58667C10.2403 1.73354 10.7487 2.06714 11.1118 2.53488C11.4748 3.00262 11.6719 3.57789 11.6719 4.17C11.6719 4.76212 11.4748 5.33739 11.1118 5.80513C10.7487 6.27287 10.2403 6.60647 9.66667 6.75334M13 13.5V12.1667C12.9966 11.5781 12.7986 11.0072 12.4368 10.5429C12.0751 10.0787 11.5699 9.74713 11 9.6M2.33333 4.16667C2.33333 4.87391 2.61428 5.55219 3.11438 6.05229C3.61448 6.55238 4.29276 6.83333 5 6.83333C5.70724 6.83333 6.38552 6.55238 6.88562 6.05229C7.38572 5.55219 7.66667 4.87391 7.66667 4.16667C7.66667 3.45942 7.38572 2.78115 6.88562 2.28105C6.38552 1.78095 5.70724 1.5 5 1.5C4.29276 1.5 3.61448 1.78095 3.11438 2.28105C2.61428 2.78115 2.33333 3.45942 2.33333 4.16667Z" stroke="#8D8D8D" stroke-width="1.25" stroke-linecap="round" stroke-linejoin="round"/>
</svg>
