<svg width="12" height="14" viewBox="0 0 12 14" fill="none" xmlns="http://www.w3.org/2000/svg">
<path d="M4.00016 2.33333H2.66683C2.31321 2.33333 1.97407 2.47381 1.72402 2.72386C1.47397 2.97391 1.3335 3.31304 1.3335 3.66667V11.6667C1.3335 12.0203 1.47397 12.3594 1.72402 12.6095C1.97407 12.8595 2.31321 13 2.66683 13H9.3335C9.68712 13 10.0263 12.8595 10.2763 12.6095C10.5264 12.3594 10.6668 12.0203 10.6668 11.6667V3.66667C10.6668 3.31304 10.5264 2.97391 10.2763 2.72386C10.0263 2.47381 9.68712 2.33333 9.3335 2.33333H8.00016M4.00016 2.33333C4.00016 1.97971 4.14064 1.64057 4.39069 1.39052C4.64074 1.14048 4.97987 1 5.3335 1H6.66683C7.02045 1 7.35959 1.14048 7.60964 1.39052C7.85969 1.64057 8.00016 1.97971 8.00016 2.33333M4.00016 2.33333C4.00016 2.68696 4.14064 3.02609 4.39069 3.27614C4.64074 3.52619 4.97987 3.66667 5.3335 3.66667H6.66683C7.02045 3.66667 7.35959 3.52619 7.60964 3.27614C7.85969 3.02609 8.00016 2.68696 8.00016 2.33333M4.00016 10.3333V7.66667M6.00016 10.3333V9.66667M8.00016 10.3333V9" stroke="#8D8D8D" stroke-width="1.25" stroke-linecap="round" stroke-linejoin="round"/>
</svg>
