<svg width="14" height="18" viewBox="0 0 14 18" fill="none" xmlns="http://www.w3.org/2000/svg">
<path d="M2.83325 0.666504C2.17021 0.666504 1.53433 0.929896 1.06548 1.39874C0.596644 1.86758 0.333252 2.50346 0.333252 3.1665V14.8332C0.333252 15.4962 0.596644 16.1321 1.06548 16.6009C1.53433 17.0698 2.17021 17.3332 2.83325 17.3332H11.1666C11.8296 17.3332 12.4655 17.0698 12.9344 16.6009C13.4032 16.1321 13.6666 15.4962 13.6666 14.8332V13.9998C13.6666 13.5396 13.2935 13.1665 12.8333 13.1665C12.373 13.1665 11.9999 13.5396 11.9999 13.9998V14.8332C11.9999 15.0542 11.9121 15.2661 11.7558 15.4224C11.5996 15.5787 11.3876 15.6665 11.1666 15.6665H2.83325C2.61224 15.6665 2.40028 15.5787 2.244 15.4224C2.08772 15.2661 1.99992 15.0542 1.99992 14.8332V3.1665C1.99992 2.94549 2.08772 2.73353 2.244 2.57725C2.40028 2.42097 2.61224 2.33317 2.83325 2.33317H11.1666C11.3876 2.33317 11.5996 2.42097 11.7558 2.57725C11.9121 2.73353 11.9999 2.94549 11.9999 3.1665V3.99984C11.9999 4.46007 12.373 4.83317 12.8333 4.83317C13.2935 4.83317 13.6666 4.46007 13.6666 3.99984V3.1665C13.6666 2.50346 13.4032 1.86758 12.9344 1.39874C12.4655 0.929896 11.8296 0.666504 11.1666 0.666504H2.83325Z" fill="#D55F5A"/>
<path d="M10.9225 5.91058C10.5971 5.58514 10.0694 5.58514 9.744 5.91058C9.41856 6.23602 9.41856 6.76366 9.744 7.08909L10.8214 8.1665H6.99992C6.53968 8.1665 6.16658 8.5396 6.16658 8.99984C6.16658 9.46007 6.53968 9.83317 6.99992 9.83317H10.8214L9.744 10.9106C9.41856 11.236 9.41856 11.7637 9.744 12.0891C10.0694 12.4145 10.5971 12.4145 10.9225 12.0891L13.4225 9.58909C13.7479 9.26366 13.7479 8.73602 13.4225 8.41058L10.9225 5.91058Z" fill="#D55F5A"/>
</svg>
