<svg width="12" height="12" viewBox="0 0 12 12" fill="none" xmlns="http://www.w3.org/2000/svg">
<path d="M4.6665 0.666504L7.33317 11.3332M5.99984 5.99984L0.666504 7.33317M0.666504 1.99984C0.666504 1.64622 0.80698 1.30708 1.05703 1.05703C1.30708 0.80698 1.64622 0.666504 1.99984 0.666504H9.99984C10.3535 0.666504 10.6926 0.80698 10.9426 1.05703C11.1927 1.30708 11.3332 1.64622 11.3332 1.99984V9.99984C11.3332 10.3535 11.1927 10.6926 10.9426 10.9426C10.6926 11.1927 10.3535 11.3332 9.99984 11.3332H1.99984C1.64622 11.3332 1.30708 11.1927 1.05703 10.9426C0.80698 10.6926 0.666504 10.3535 0.666504 9.99984V1.99984Z" stroke="#8D8D8D" stroke-width="1.25" stroke-linecap="round" stroke-linejoin="round"/>
</svg>
