<svg width="12" height="14" viewBox="0 0 14 14" fill="none" xmlns="http://www.w3.org/2000/svg">
<path fill-rule="evenodd" clip-rule="evenodd" d="M4.37484 0.583496C4.697 0.583496 4.95817 0.844663 4.95817 1.16683V1.75016H9.0415V1.16683C9.0415 0.844663 9.30267 0.583496 9.62484 0.583496C9.947 0.583496 10.2082 0.844663 10.2082 1.16683V1.76456C11.6821 1.9109 12.8332 3.15444 12.8332 4.66683V9.91683C12.8332 11.5277 11.5273 12.8335 9.9165 12.8335H4.08317C2.47234 12.8335 1.1665 11.5277 1.1665 9.91683V4.66683C1.1665 3.15444 2.31762 1.9109 3.7915 1.76456V1.16683C3.7915 0.844663 4.05267 0.583496 4.37484 0.583496ZM2.43275 4.0835H11.5669C11.3267 3.4038 10.6785 2.91683 9.9165 2.91683H4.08317C3.32121 2.91683 2.67299 3.4038 2.43275 4.0835ZM11.6665 5.25016H2.33317V9.91683C2.33317 10.8833 3.11667 11.6668 4.08317 11.6668H9.9165C10.883 11.6668 11.6665 10.8833 11.6665 9.91683V5.25016ZM6.99984 6.12516C7.322 6.12516 7.58317 6.38633 7.58317 6.7085V7.87516H8.74984C9.072 7.87516 9.33317 8.13633 9.33317 8.4585C9.33317 8.78066 9.072 9.04183 8.74984 9.04183H7.58317V10.2085C7.58317 10.5307 7.322 10.7918 6.99984 10.7918C6.67767 10.7918 6.4165 10.5307 6.4165 10.2085V9.04183H5.24984C4.92767 9.04183 4.6665 8.78066 4.6665 8.4585C4.6665 8.13633 4.92767 7.87516 5.24984 7.87516H6.4165V6.7085C6.4165 6.38633 6.67767 6.12516 6.99984 6.12516Z" fill="#8D8D8D"/>
</svg>
