<svg width="9" height="19" viewBox="0 0 9 19" fill="none" xmlns="http://www.w3.org/2000/svg">
<path d="M7.28758 18.2496C7.10084 18.2502 6.91633 18.209 6.7476 18.129C6.57888 18.049 6.43023 17.9321 6.31258 17.7871L0.275083 10.2871C0.0912305 10.0634 -0.00927734 9.78289 -0.00927734 9.49336C-0.00927734 9.20383 0.0912305 8.92328 0.275083 8.69961L6.52508 1.19961C6.73726 0.944341 7.04214 0.783811 7.37268 0.753336C7.70321 0.722862 8.03231 0.824939 8.28758 1.03711C8.54285 1.24929 8.70338 1.55417 8.73386 1.88471C8.76433 2.21524 8.66226 2.54434 8.45008 2.79961L2.86258 9.49961L8.26258 16.1996C8.41544 16.3831 8.51253 16.6065 8.54238 16.8435C8.57223 17.0804 8.53358 17.3209 8.43102 17.5366C8.32845 17.7522 8.16625 17.934 7.96361 18.0604C7.76097 18.1867 7.52637 18.2524 7.28758 18.2496Z" fill="#8D8D8D"/>
</svg>
