<svg width="40" height="41" viewBox="0 0 40 41" fill="none" xmlns="http://www.w3.org/2000/svg">
<g clip-path="url(#clip0_119_856)">
<rect width="40" height="40" transform="translate(0 0.5)" fill="white"/>
<path d="M20 37.1667C21.8333 37.1667 23.3333 35.6667 23.3333 33.8334H16.6666C16.6666 35.6667 18.1666 37.1667 20 37.1667ZM30 27.1667V18.8334C30 13.7167 27.2833 9.43341 22.5 8.30008V7.16675C22.5 5.78341 21.3833 4.66675 20 4.66675C18.6166 4.66675 17.5 5.78341 17.5 7.16675V8.30008C12.7333 9.43341 9.99996 13.7001 9.99996 18.8334V27.1667L6.66663 30.5001V32.1667H33.3333V30.5001L30 27.1667ZM26.6666 28.8334H13.3333V18.8334C13.3333 14.7001 15.85 11.3334 20 11.3334C24.15 11.3334 26.6666 14.7001 26.6666 18.8334V28.8334Z" fill="#8D8D8D"/>
</g>
<defs>
<clipPath id="clip0_119_856">
<rect width="40" height="40" fill="white" transform="translate(0 0.5)"/>
</clipPath>
</defs>
</svg>
