<svg width="29" height="29" viewBox="0 0 29 29" fill="none" xmlns="http://www.w3.org/2000/svg">
<g clip-path="url(#clip0_119_853)">
<path d="M13.0322 19.5332C14.4297 19.5332 15.7393 19.1113 16.8291 18.3906L20.6787 22.249C20.9336 22.4951 21.2588 22.6182 21.6104 22.6182C22.3398 22.6182 22.876 22.0469 22.876 21.3262C22.876 20.9922 22.7617 20.667 22.5156 20.4209L18.6924 16.5801C19.4834 15.4551 19.9492 14.0928 19.9492 12.6162C19.9492 8.81055 16.8379 5.69922 13.0322 5.69922C9.23535 5.69922 6.11523 8.81055 6.11523 12.6162C6.11523 16.4219 9.22656 19.5332 13.0322 19.5332ZM13.0322 17.6875C10.2461 17.6875 7.96094 15.4023 7.96094 12.6162C7.96094 9.83008 10.2461 7.54492 13.0322 7.54492C15.8184 7.54492 18.1035 9.83008 18.1035 12.6162C18.1035 15.4023 15.8184 17.6875 13.0322 17.6875Z" fill="#3C3C43" fill-opacity="0.6"/>
</g>
<defs>
<clipPath id="clip0_119_853">
<rect width="28" height="28" fill="white" transform="translate(0.5 0.5)"/>
</clipPath>
</defs>
</svg>
