<svg width="35" height="34" viewBox="0 0 35 34" fill="none" xmlns="http://www.w3.org/2000/svg">
<path d="M34.4565 8.864C34.4565 16.544 28.0565 27.296 19.6085 31.392L19.0965 30.368C24.2165 27.552 29.7205 20.64 30.2325 16.544C28.1845 12.448 23.7045 10.528 18.8405 9.504C18.8405 3.99999 22.1685 0.159996 26.5205 0.159996C30.1045 0.159996 34.4565 2.464 34.4565 8.864ZM16.0245 11.424C16.0245 19.104 9.6245 29.856 1.1765 33.952L0.6645 32.928C5.7845 30.112 11.2885 23.2 11.8005 19.104C9.7525 15.008 5.2725 13.088 0.4085 12.064C0.4085 6.56 3.7365 2.71999 8.0885 2.71999C11.6725 2.71999 16.0245 5.02399 16.0245 11.424Z" fill="#D1BB9E"/>
</svg>
