<svg width="35" height="34" viewBox="0 0 35 34" fill="none" xmlns="http://www.w3.org/2000/svg">
<path d="M18.7125 22.688C18.7125 15.008 24.9845 4.256 33.4325 0.159996L33.9445 1.184C28.9525 3.99999 23.3205 10.912 22.8085 15.008C24.9845 19.104 29.4645 21.024 34.3285 22.048C34.3285 27.552 31.0005 31.392 26.6485 31.392C22.9365 31.392 18.7125 29.088 18.7125 22.688ZM0.2805 25.248C0.2805 17.568 6.5525 6.81599 15.0005 2.71999L15.5125 3.744C10.5205 6.56 4.8885 13.472 4.3765 17.568C6.5525 21.664 11.0325 23.584 15.8965 24.608C15.8965 30.112 12.5685 33.952 8.2165 33.952C4.5045 33.952 0.2805 31.648 0.2805 25.248Z" fill="#D1BB9E"/>
</svg>
